<svg width="56" height="48" viewBox="0 0 56 48" fill="none" xmlns="http://www.w3.org/2000/svg">
  <path fill-rule="evenodd" clip-rule="evenodd"
    d="M56 31.9811V36.1741C54.6133 38.5796 52.8112 40.7175 50.6782 42.4876C49.4844 43.4626 48.2133 44.3378 46.8774 45.1043C45.3592 45.9701 43.7507 46.6651 42.081 47.177C40.2735 47.7328 38.3925 48.0098 36.5023 47.9989C33.5306 48.0244 30.5705 47.6233 27.7116 46.8076C24.9855 47.6126 22.1572 48.0139 19.3159 47.9989C16.2666 48.0164 13.2377 47.4964 10.3671 46.4622C7.63517 45.4879 5.05046 44.1382 2.68658 42.4518V38.8782V38.8187H3.16072C3.16987 38.863 3.18173 38.9068 3.19626 38.9497C3.32676 39.4332 3.55693 39.8836 3.87185 40.2719C5.84688 42.4363 8.1928 44.2264 10.7978 45.5569C13.434 46.9112 16.3553 47.6097 19.3159 47.5938C21.7187 47.609 24.1046 47.1908 26.3604 46.359C26.0996 46.2677 25.8389 46.1724 25.5702 46.0691C22.4675 44.8866 19.6238 43.1077 17.1982 40.8318C14.909 38.6796 13.0795 36.0816 11.8211 33.1961C10.57 30.2983 9.93222 27.1707 9.94833 24.0119C9.93363 21.2747 10.4462 18.5605 11.4576 16.0189H0V11.8259C1.38718 9.42072 3.18922 7.28285 5.32185 5.5124C6.51509 4.53554 7.7863 3.65908 9.12261 2.89179C10.6427 2.02698 12.2524 1.33195 13.923 0.819102C15.7306 0.264073 17.6116 -0.0117519 19.5016 0.00111556C22.472 -0.0240617 25.4308 0.377054 28.2884 1.19232C31.0141 0.385691 33.8427 -0.0156325 36.6841 0.00111556C39.733 -0.0157112 42.7615 0.50293 45.6329 1.53375C48.3646 2.5103 50.9492 3.86121 53.3134 5.54817V9.12179V9.17734H52.8393C52.8296 9.13441 52.8177 9.09207 52.8037 9.05035C52.6732 8.56688 52.443 8.11636 52.1281 7.72808C50.1539 5.56282 47.8078 3.77255 45.2022 2.44306C42.5667 1.08655 39.645 0.387909 36.6841 0.406134C34.2813 0.391 31.8954 0.809201 29.6396 1.64097C29.9004 1.73229 30.1611 1.82758 30.4298 1.92685C33.5303 3.11334 36.3722 4.89344 38.7978 7.16824C41.0888 9.31896 42.9186 11.9173 44.1749 14.8039C45.426 17.7017 46.0638 20.8293 46.0477 23.9881C46.0624 26.7253 45.5499 29.4396 44.5384 31.9811H56ZM34.5783 33.4344H34.0172L20.9792 16.5867V33.4344H20.3985V16.0308H16.333C15.6299 18.3143 15.2781 20.6924 15.2899 23.0827C15.2829 26.1289 15.7413 29.1581 16.6491 32.0645C17.5207 34.9125 18.8951 37.5796 20.7066 39.9384C22.5019 42.2512 24.7727 44.1473 27.3639 45.4974C27.5219 45.5808 27.6839 45.6641 27.8459 45.7395C28.6132 45.3784 29.3563 44.9672 30.0703 44.5087C33.3041 42.4478 35.9699 39.6021 37.8219 36.2337C38.324 35.3321 38.7636 34.3968 39.1376 33.4344H34.5664H34.5783ZM21.4257 14.5775H21.9907C26.3208 20.1683 30.6523 25.7603 34.9852 31.3537V14.5775H35.562V31.9811H39.6433C40.3464 29.6976 40.6982 27.3195 40.6863 24.9292C40.6934 21.883 40.235 18.8537 39.3272 15.9474C38.4572 13.0987 37.0827 10.4314 35.2697 8.07357C33.4754 5.75975 31.2044 3.86339 28.6124 2.5146C28.4543 2.43121 28.2923 2.34779 28.1304 2.27234C27.3639 2.63371 26.6209 3.04355 25.906 3.49932C22.6731 5.56183 20.0087 8.40885 18.1583 11.7782C17.6558 12.6733 17.2149 13.6019 16.8387 14.5577L21.4257 14.5775ZM12.1213 14.5775C12.551 13.7011 13.0366 12.8536 13.5753 12.0403C16.8055 7.28671 21.435 3.66835 26.8147 1.69264C24.4756 0.826416 21.9983 0.398477 19.5056 0.429982C17.6413 0.39449 15.7864 0.703987 14.0336 1.34316C12.5939 1.8719 11.244 2.6206 10.0313 3.56282C8.3078 4.87302 6.87139 6.52611 5.81175 8.41897L5.3258 9.33623V14.5775H12.1213ZM29.1932 46.3193C31.5321 47.1862 34.0096 47.6142 36.5023 47.582C38.3657 47.6179 40.2196 47.3069 41.9704 46.6648C43.4105 46.1389 44.7607 45.3914 45.9726 44.4491C46.9744 43.6814 47.884 42.7994 48.6829 41.8205C49.2483 41.1212 49.7532 40.3746 50.1922 39.5889L50.6782 38.6717V33.4344H43.8865C43.4556 34.3109 42.9687 35.1585 42.4287 35.9717C39.9783 39.6485 36.6522 42.6514 32.7529 44.7072C31.6062 45.3293 30.4165 45.868 29.1932 46.3193Z"
    fill="#000003" />
</svg>
  