<svg width="227" height="19" viewBox="0 0 227 19" fill="none" xmlns="http://www.w3.org/2000/svg">
  <path fill-rule="evenodd" clip-rule="evenodd" d="M212.109 2.02002H217.559V18.1799H220.259V2.02002H226.759V0.0200195H211.039V2.02002H212.109ZM108.639 18.1799H111.339V0.0200195H108.639V18.1799ZM105.509 18.1799V16.1799H93.8895V0.0200195H91.1895V18.1799H105.509ZM82.6895 18.1799H85.3895V0.0200195H82.6895V18.1799ZM77.3595 6.22998C77.3741 5.38677 77.2025 4.55072 76.8568 3.78149C76.511 3.01227 75.9998 2.32888 75.3595 1.78003C73.9155 0.562945 72.066 -0.0654651 70.1795 0.0200195H62.7595V18.1799H65.4595V12.3899H70.0795C70.928 12.3576 71.7733 12.2673 72.6095 12.1199C73.978 11.789 75.2046 11.0286 76.1095 9.94995C76.9588 8.89818 77.4118 7.58164 77.3895 6.22998H77.3595ZM70.2195 12.5701L74.1495 14.3799L76.7995 18.1799H74.0395L70.2195 12.5701ZM69.9595 2.02002C71.1962 1.98166 72.3999 2.42228 73.3195 3.25C73.7421 3.6198 74.0807 4.07555 74.3127 4.58691C74.5448 5.09828 74.6648 5.65354 74.6648 6.21509C74.6648 6.77663 74.5448 7.33165 74.3127 7.84302C74.0807 8.35438 73.7421 8.81013 73.3195 9.17993C72.3987 9.99804 71.2007 10.4343 69.9695 10.3999H65.4395V2.02002H69.9595ZM49.3095 16.02L43.4395 0.0200195H40.5695L47.2895 18.1799H51.2895L57.9995 0.0200195H55.1295L49.2695 16.02H49.3095ZM40.5695 18.1599H37.8795C36.8795 15.3899 36.2495 13.8399 35.6895 12.3699H27.8395L25.6495 18.1599H22.9595L29.8195 0H33.7595L40.6195 18.1599H40.5695ZM28.5695 10.3799H34.9095L31.7595 2.07007C30.1795 6.22007 29.3095 8.5299 28.5895 10.3999L28.5695 10.3799ZM130.169 14.77L120.68 0H117.129V18.1599H119.829V3.46997L129.309 18.22H132.869V0.0600586H130.169V14.8301V14.77ZM155.169 18.1599L148.299 0H144.409L137.559 18.1599H140.249L142.439 12.3699H150.289C150.839 13.8399 151.429 15.3699 152.479 18.1599H155.169ZM143.169 10.3799L146.339 2.05005C147.969 6.34005 148.829 8.60988 149.509 10.3799H143.169ZM17.7995 10.3799C17.4307 11.988 16.4931 13.4086 15.1595 14.3799C13.6637 15.4966 11.8317 16.0699 9.96619 16.0044C8.10066 15.9389 6.3133 15.2389 4.89949 14.02C3.7214 13.0104 2.9495 11.6075 2.72699 10.072C2.50448 8.53651 2.84645 6.97246 3.68948 5.66992C4.37675 4.61356 5.3282 3.7552 6.44949 3.17993C7.64406 2.58207 8.96372 2.27711 10.2995 2.29004C11.562 2.27787 12.8106 2.55477 13.9495 3.09985C14.5815 3.39793 15.1675 3.78536 15.6895 4.25H18.9995C18.0731 2.92812 16.8187 1.87004 15.3595 1.17993C13.7775 0.43487 12.0481 0.0556283 10.2995 0.0700684C8.50105 0.0525129 6.72355 0.456582 5.1095 1.25C3.59746 1.97961 2.30921 3.10207 1.37949 4.5C0.479252 5.88194 0 7.49572 0 9.14502C0 10.7943 0.479252 12.4081 1.37949 13.79C2.30019 15.1983 3.59063 16.3262 5.1095 17.05C6.73065 17.8286 8.50607 18.2327 10.3045 18.2327C12.1029 18.2327 13.8783 17.8286 15.4995 17.05C17.0156 16.3259 18.3027 15.198 19.2195 13.79C19.8901 12.7788 20.3273 11.631 20.4995 10.4299C20.56 10.0026 20.5901 9.57148 20.5895 9.13989C20.5895 8.80989 20.5895 8.48989 20.5395 8.13989H10.1995V10.1399H17.8695L17.8095 10.4399L17.7995 10.3799ZM185.879 14.79L176.389 0.0200195H172.839V18.1799H175.539V3.46997L185.029 18.22H188.579V0.0600586H185.879V14.8301V14.79ZM210.879 18.1799L204.009 0.0200195H200.119L193.27 18.1799H195.96L198.15 12.3899H205.999C206.549 13.8599 207.139 15.3899 208.189 18.1799H210.879ZM198.879 10.3999L202.049 2.07007L205.219 10.3999H198.879Z" fill="#000003"/>
  </svg>
  